<?xml version="1.0" encoding="UTF-8"?>
<svg width="433px" height="442px" viewBox="0 0 433 442" version="1.1" xmlns="http://www.w3.org/2000/svg" xmlns:xlink="http://www.w3.org/1999/xlink">
    <!-- Generator: Sketch 46.2 (44496) - http://www.bohemiancoding.com/sketch -->
    <title>compass_2</title>
    <desc>Created with Sketch.</desc>
    <defs></defs>
    <g id="Page-1" stroke="none" stroke-width="1" fill="none" fill-rule="evenodd">
        <g id="compass_2">
            <g id="Group">
                <path d="M41.9060001,219 L113.004663,219 C113.541397,161.470625 160.3438,115 218,115 C218.333699,115 218.667035,115.001557 219,115.004663 L219,41.9060001 C210.383903,41.0919711 203.283304,35.0721585 200.877288,27.0256493 C109.251381,36.4187801 36.4187801,109.251381 27.0256493,200.877288 C35.0721585,203.283304 41.0919711,210.383903 41.9060001,219 Z M41.9060001,223 C41.0919711,231.616097 35.0721585,238.716696 27.0256493,241.122712 C36.4187801,332.748619 109.251381,405.58122 200.877288,414.974351 C203.283304,406.927842 210.383903,400.908029 219,400.094 L219,324.995337 C218.667035,324.998443 218.333699,325 218,325 C161.013454,325 114.630044,279.602582 113.042033,223.000011 L41.9060001,223 Z M391.094,219 C392.101119,208.340135 401.076588,200 412,200 C412.985195,200 413.954545,200.067842 414.903632,200.19911 C405.221538,108.892201 332.522445,36.3955936 241.122712,27.0256493 C238.716696,35.0721585 231.616097,41.0919711 223,41.9060001 L223,115.116951 C278.338294,117.711251 322.474207,163.143067 322.995337,219 L391.094,219 Z M391.094,223 L322.957967,223 C321.416665,277.937746 277.676318,322.319783 223,324.883049 L223,400.094 C231.616097,400.908029 238.716696,406.927842 241.122712,414.974351 C332.522445,405.604406 405.221538,333.107799 414.903632,241.80089 C413.954545,241.932158 412.985195,242 412,242 C401.076588,242 392.101119,233.659865 391.094,223 Z M118.004896,219 L219,219 L219,120.004896 C218.667054,120.001635 218.333718,120 218,120 C163.105243,120 118.541445,164.232096 118.004896,219 Z M118.04414,223.000013 C119.630489,276.840729 163.77505,320 218,320 C218.333718,320 218.667054,319.998365 219,319.995104 L219,223 L118.04414,223 Z M317.995104,219 C317.474943,165.904846 275.575868,122.711747 223,120.122825 L223,219 L317.995104,219 Z M317.95586,223 L223,223 L223,319.877175 C274.914144,317.320837 316.418561,275.175985 317.95586,223.000012 Z M200.027619,419.91356 C106.32045,410.148752 31.8512476,335.67955 22.0864397,241.972381 C21.7266098,241.990719 21.3643887,242 21,242 C9.40202025,242 0,232.59798 0,221 C0,209.40202 9.40202025,200 21,200 C21.3643887,200 21.7266098,200.009281 22.0864397,200.027619 C31.8512476,106.32045 106.32045,31.8512476 200.027619,22.0864397 C200.009281,21.7266098 200,21.3643887 200,21 C200,9.40202025 209.40202,0 221,0 C232.59798,0 242,9.40202025 242,21 C242,21.3643887 241.990719,21.7266098 241.972381,22.0864397 C336.205521,31.9060566 410.984126,107.158468 420.071864,201.607342 C427.663474,204.770853 433,212.26222 433,221 C433,229.73778 427.663474,237.229147 420.071864,240.392658 C410.984126,334.841532 336.205521,410.093943 241.972381,419.91356 C241.990719,420.27339 242,420.635611 242,421 C242,432.59798 232.59798,442 221,442 C209.40202,442 200,432.59798 200,421 C200,420.635611 200.009281,420.27339 200.027619,419.91356 Z" id="Combined-Shape" fill="#9E9E9E"></path>
                <path d="M25.0019531,224.117188 L26.9160156,214 L29.8359375,214 L26.6816406,228.21875 L23.7324219,228.21875 L21.4179688,218.707031 L19.1035156,228.21875 L16.1542969,228.21875 L13,214 L15.9199219,214 L17.84375,224.097656 L20.1875,214 L22.6679688,214 L25.0019531,224.117188 Z M226.5625,28.21875 L223.632812,28.21875 L217.929687,18.8632812 L217.929687,28.21875 L215,28.21875 L215,14 L217.929687,14 L223.642578,23.375 L223.642578,14 L226.5625,14 L226.5625,28.21875 Z M415.554687,222.056641 L409.929687,222.056641 L409.929687,225.865234 L416.53125,225.865234 L416.53125,228.21875 L407,228.21875 L407,214 L416.511719,214 L416.511719,216.373047 L409.929687,216.373047 L409.929687,219.761719 L415.554687,219.761719 L415.554687,222.056641 Z M223.96875,424.683594 C223.96875,424.130206 223.773439,423.705405 223.382812,423.40918 C222.992186,423.112954 222.289068,422.800457 221.273437,422.47168 C220.257807,422.142902 219.453779,421.819012 218.861328,421.5 C217.246737,420.6276 216.439453,419.452481 216.439453,417.974609 C216.439453,417.206376 216.655922,416.521162 217.088867,415.918945 C217.521812,415.316729 218.143551,414.846356 218.954102,414.507812 C219.764652,414.169269 220.674474,414 221.683594,414 C222.699224,414 223.604163,414.183917 224.398437,414.551758 C225.192712,414.919598 225.809568,415.438799 226.249023,416.109375 C226.688479,416.779951 226.908203,417.541662 226.908203,418.394531 L223.978516,418.394531 C223.978516,417.743486 223.77344,417.237306 223.363281,416.875977 C222.953123,416.514647 222.376957,416.333984 221.634766,416.333984 C220.918616,416.333984 220.361981,416.48535 219.964844,416.788086 C219.567706,417.090822 219.369141,417.489581 219.369141,417.984375 C219.369141,418.446617 219.601886,418.833983 220.067383,419.146484 C220.53288,419.458986 221.218094,419.751952 222.123047,420.025391 C223.789722,420.526695 225.003902,421.148434 225.765625,421.890625 C226.527348,422.632816 226.908203,423.557286 226.908203,424.664062 C226.908203,425.894537 226.442713,426.859697 225.511719,427.55957 C224.580725,428.259444 223.327482,428.609375 221.751953,428.609375 C220.658198,428.609375 219.662114,428.409182 218.763672,428.008789 C217.86523,427.608396 217.180015,427.059899 216.708008,426.363281 C216.236,425.666663 216,424.85938 216,423.941406 L218.939453,423.941406 C218.939453,425.510425 219.876944,426.294922 221.751953,426.294922 C222.448571,426.294922 222.992186,426.153322 223.382812,425.870117 C223.773439,425.586913 223.96875,425.191409 223.96875,424.683594 Z" id="Combined-Shape" fill="#000000"></path>
            </g>
        </g>
    </g>
</svg>